<?xml version="1.0" encoding="utf-8"?>
<!-- Generator: Adobe Illustrator 22.0.1, SVG Export Plug-In . SVG Version: 6.00 Build 0)  -->
<svg version="1.1" xmlns="http://www.w3.org/2000/svg" xmlns:xlink="http://www.w3.org/1999/xlink" x="0px" y="0px"
	 viewBox="0 0 32 32" style="enable-background:new 0 0 32 32;" xml:space="preserve">
<style type="text/css">
	.st0{display:none;}
	.st1{fill:#514739;}
	.st2{fill:#F4CFA2;}
	.st3{fill:#9E4646;}
	.st4{fill:#41B5B1;}
	.st5{opacity:0.65;fill:#538784;}
	.st6{fill:none;stroke:#000000;stroke-width:0.5;stroke-miterlimit:10;}
	.st7{opacity:0.73;fill:url(#SVGID_1_);}
	.st8{fill:#FFE8C0;}
	.st9{opacity:0.69;fill:#CCB89B;}
	.st10{opacity:0.73;fill:url(#SVGID_2_);}
	.st11{opacity:0.56;fill:#332F2B;}
	.st12{display:inline;fill:#FBB03B;stroke:#4F3F2F;stroke-miterlimit:10;}
	.st13{display:inline;}
	.st14{fill:#FBB03B;}
	.st15{fill:none;stroke:#4F3F2F;stroke-miterlimit:10;}
	.st16{display:inline;fill:#FFFFFF;}
	.st17{display:inline;fill:#FFE8C0;stroke:#000000;stroke-width:0.75;stroke-miterlimit:10;}
	.st18{display:inline;fill:#514739;stroke:#000000;stroke-width:0.75;stroke-miterlimit:10;}
	.st19{display:inline;fill:#9E4646;stroke:#000000;stroke-width:0.75;stroke-miterlimit:10;}
	.st20{fill:none;stroke:#000000;stroke-width:0.75;stroke-miterlimit:10;}
	.st21{display:inline;opacity:0.56;fill:#332F2B;stroke:#000000;stroke-width:0.75;stroke-miterlimit:10;}
</style>
<g id="Layer_1" class="st0">
</g>
<g id="Layer_3">
	<path class="st1" d="M19.5,10.9c0.6-0.1,1.2,0,1.2,0s0.5,0,0.9,0.2l0,0c-0.2,0.2-0.3,0.5-0.4,0.8c-0.1,0-0.3-0.1-0.5-0.1
		c-0.4,0-0.7,0-1,0C19.7,11.5,19.6,11.2,19.5,10.9z"/>
	<path class="st1" d="M6.3,13.9c0,0-2.1-4.5,1.2-7c1.4-5.2,8.7-4.4,8.7-4.4C21.5,2.4,24,6.6,24,6.6c0.8,1.4,1.2,3.1,1.3,7.5
		c0,0-0.6,0.3-0.7,1.5c0,0,0-0.7,0.1-1.3c0,0,0-0.1,0-0.1c0-1.7-1.7-4.7-1.7-4.7c-1.3,0-2.6,0-3.7-0.1c-0.1-0.7-0.3-1.3-0.3-1.5
		c-0.2-0.7-0.3-1.3-0.8-1.3c-0.8,0-0.5,1.4-0.5,1.4s0,0.5,0.1,1.1C17,9.1,16.3,9,15.8,8.8h0c-0.2-0.5-0.4-0.9-0.4-1
		c-0.2-0.4-0.4-1-0.9-0.8c-0.7,0.2-0.3,1.4-0.3,1.4C11.2,7.7,9.9,9,9.9,9s-1.2,1.9-2.5,3.8h0c0,0.7,0.2,2.7,0.2,2.7
		C7.4,14.3,6.9,14,6.9,14C6.6,13.9,6.4,13.8,6.3,13.9z"/>
	<path class="st1" d="M9.7,12.2c-0.2-0.2,0-0.5,0-0.5c0.3-0.6,1.8-0.8,2.5-0.8l0.3,0.9c-0.1,0-0.1,0-0.1,0c-1-0.1-1.6,0.2-1.9,0.4
		C10.3,12.2,9.9,12.4,9.7,12.2z"/>
	<g>
		<path class="st2" d="M25.2,14.1c1.9-1,0.3,3.7,0,4.3c-0.3,0.6-0.9,0.1-0.9,0.1c-0.3,1.6-0.9,2.8-1.7,3.8l-0.5-1.1l-0.9,0.3
			c-0.1-0.9,0-1.1,0-1.1c1-1.1,0.8-2.6,0.9-3.6c0.1-0.9,0.7-3.5,0.7-3.5c0.3-2.6-0.6-2.5-0.6-2.5c-0.3,0-0.5,0.1-0.7,0.3l0,0
			c-0.5-0.2-0.9-0.2-0.9-0.2s-0.5,0-1.2,0c-0.1-0.5-0.2-1.1-0.3-1.6c1.2,0.1,2.4,0.2,3.7,0.1c0,0,1.7,3,1.7,4.7c0,0,0,0.1,0,0.1
			c0,0.6-0.1,1.3-0.1,1.3C24.7,14.4,25.2,14.1,25.2,14.1z"/>
		<path class="st2" d="M20.7,11.7c0.2,0,0.4,0.1,0.5,0.1c-0.4,1-0.5,2.4-0.7,2.4c-0.3,0-0.6-1.1-0.6-1.1s-0.1-0.6-0.3-1.5
			C20,11.7,20.3,11.7,20.7,11.7z"/>
		<path class="st2" d="M17.6,9.2c0.1,1.3,0.2,3.3,0.1,3.6c-0.1,0.5-0.3,0.1-0.3,0.1s-1.1-2.6-1.7-4.1C16.3,9,17,9.1,17.6,9.2z"/>
		<path class="st2" d="M6.9,18.4c-0.3-0.5-1.5-4.3-0.5-4.5c0.1,0,0.3,0,0.5,0.1c0,0,0.5,0.3,0.7,1.5c0,0-0.1-2-0.2-2.7h0
			C8.7,10.9,9.9,9,9.9,9s1.3-1.3,4.2-0.5c0,0,1.2,3.9,1.3,4.5c0.1,0.6,0,0.5,0,0.5c-0.2,0.1-0.3-0.1-0.3-0.1s-2-3.4-2-3.6
			s-0.5-0.9-0.9-0.7c-0.5,0.3-0.2,1.1-0.2,1.1l0.2,0.7c-0.7,0-2.1,0.1-2.5,0.8c0,0-0.2,0.4,0,0.5c0.2,0.2,0.5,0.1,0.8,0
			c0.3-0.2,0.9-0.5,1.9-0.4c0,0,0.1,0,0.1,0l0.9,2.5c0,0,0.1,0.1,0,0.2c0,0.1-0.1,0-0.1,0c-0.1-0.1-1.3-1.6-1.3-1.6
			c-0.9-1.1-1.2-0.7-1.2-0.7s-0.5,0.3,0.4,1.6c0,0,1,1.7,1,1.9c0,0,0.1,0.3,0.2,0.7c0.4,1.2,1.1,3.8,1.7,4.2c0.4,0.3,0.9,1,1.4,1.6
			c-0.9,0.3-1.4,0.9-1.4,0.9c0.7,0,1.4-0.1,2-0.1c0.1,0.1,0.2,0.2,0.2,0.2l-0.6,0.2l0.7,2.8c-0.2,0.1-1.4,0-1.4,0
			c-0.5,0-1.9-0.3-3.3-1.2c-1.7-1-3.4-2.9-4.1-6.2C7.7,18.5,7.2,19,6.9,18.4z"/>
		<path class="st2" d="M11.7,25.6c0.1-0.5,0.1-0.9,0.1-0.9c1.4,0.9,2.8,1.2,3.3,1.2c0,0,1.2,0.1,1.4,0l0.8,3
			c-5.4,0.5-5.9-1.2-5.9-1.2S11.5,26.5,11.7,25.6C11.7,25.6,11.7,25.6,11.7,25.6z"/>
	</g>
	<path class="st3" d="M16.1,22.8c-0.6,0-2.6,0.2-3.2,0.3c0,0,0.9-1.2,2.5-1.2C15.6,22.1,15.9,22.6,16.1,22.8z"/>
	<path class="st4" d="M29.5,33h-1.9l-3.6-7.6C24.3,25.5,28.6,27.4,29.5,33z"/>
	<path class="st5" d="M29.5,33h-3L23,25.4c0.2,0.1,3.3,2.9,3.8,3.5C27.5,29.9,29.1,31.6,29.5,33z"/>
	<path class="st4" d="M16.5,25.9l-0.7-2.8l0.6-0.2l4.9-1.4l0.9-0.3l0.5,1.1l1.4,2.9c0,0,0,0,0,0l3.6,7.6h-9.3l-1-4L16.5,25.9z"/>
	<path class="st4" d="M17.3,29l1,4H2.1c0.4-6.1,9.3-7.4,9.5-7.4c-0.1,0.9-0.3,2.1-0.3,2.1S11.8,29.5,17.3,29z"/>
	<g>
		<path class="st6" d="M9.7,15.7c0,0,0.6,0.8,2.7,0.5"/>
		<path class="st6" d="M22.4,15.8c0.1,0,0.2-0.1,0.5-0.2"/>
		<path class="st6" d="M22.4,15.8C22.4,15.8,22.4,15.8,22.4,15.8C22.4,15.8,22.4,15.8,22.4,15.8"/>
	</g>
	<linearGradient id="SVGID_1_" gradientUnits="userSpaceOnUse" x1="20.4018" y1="11.0566" x2="-6.0205" y2="38.9696">
		<stop  offset="0" style="stop-color:#000000"/>
		<stop  offset="5.712372e-02" style="stop-color:#211016;stop-opacity:0.9429"/>
		<stop  offset="0.1571" style="stop-color:#542939;stop-opacity:0.8429"/>
		<stop  offset="0.2615" style="stop-color:#823F58;stop-opacity:0.7385"/>
		<stop  offset="0.3686" style="stop-color:#A95172;stop-opacity:0.6314"/>
		<stop  offset="0.4787" style="stop-color:#C86087;stop-opacity:0.5213"/>
		<stop  offset="0.5929" style="stop-color:#E06C97;stop-opacity:0.4071"/>
		<stop  offset="0.713" style="stop-color:#F274A3;stop-opacity:0.287"/>
		<stop  offset="0.8428" style="stop-color:#FC79AA;stop-opacity:0.1572"/>
		<stop  offset="1" style="stop-color:#FF7BAC;stop-opacity:0"/>
	</linearGradient>
	<path class="st7" d="M10.9,13.7c-0.9-1.3-0.4-1.6-0.4-1.6s0.3-0.4,1.2,0.7c0,0,1.2,1.5,1.3,1.6c0,0,0.1,0.1,0.2,0s0-0.2,0-0.2
		l-0.9-2.5l-0.3-0.9l-0.2-0.7c0,0-0.3-0.8,0.2-1.1c0.5-0.3,0.9,0.5,0.9,0.7s2,3.6,2,3.6s0.1,0.2,0.3,0.1c0,0,0.1,0.1-0.1-0.5
		c-0.1-0.6-1.3-4.5-1.3-4.5S13.4,7.2,14,7c0.6-0.1,0.7,0.5,0.9,0.8c0.1,0.1,0.2,0.5,0.4,1h0c0.6,1.5,1.7,4.1,1.7,4.1
		s0.2,0.3,0.3-0.1c0-0.3-0.1-2.3-0.1-3.6c0-0.7-0.1-1.1-0.1-1.1S17,6.6,17.8,6.6c0.6,0,0.7,0.6,0.8,1.3c0.1,0.2,0.2,0.8,0.3,1.5
		c0.1,0.5,0.2,1,0.3,1.6c0,0.3,0.1,0.6,0.2,0.8c0.2,0.9,0.3,1.5,0.3,1.5s0.3,1.1,0.6,1.1c0.2,0,0.3-1.4,0.7-2.4
		c0.1-0.3,0.2-0.6,0.4-0.8c0.2-0.2,0.4-0.3,0.6-0.3c0,0,0.9-0.1,0.6,2.5c0,0-0.6,2.6-0.7,3.5c-0.1,0.9,0.2,2.5-0.9,3.6
		c0,0-0.1,0.2,0,1.1l-5.2,1.6c-0.1-0.1-1.6-2.4-2-2.7c-0.5-0.4-1.3-3-1.7-4.2c-0.1-0.4-0.2-0.6-0.2-0.7
		C11.9,15.4,10.9,13.7,10.9,13.7z"/>
	<path class="st8" d="M11.2,13.7c-0.9-1.3-0.4-1.6-0.4-1.6s0.3-0.4,1.2,0.7c0,0,1.2,1.5,1.3,1.6c0,0,0.1,0.1,0.2,0s0-0.2,0-0.2
		l-0.9-2.5l-0.3-0.9L12,10.2c0,0-0.3-0.8,0.2-1.1c0.5-0.3,0.9,0.5,0.9,0.7s2,3.6,2,3.6s0.1,0.2,0.3,0.1c0,0,0.1,0.1-0.1-0.5
		c-0.2-0.6-1.3-4.5-1.3-4.5S13.7,7.2,14.4,7c0.6-0.1,0.7,0.5,0.9,0.8c0.1,0.1,0.2,0.5,0.4,1h0c0.6,1.5,1.7,4.1,1.7,4.1
		s0.2,0.3,0.3-0.1c0-0.3-0.1-2.3-0.1-3.6c0-0.7-0.1-1.1-0.1-1.1s-0.2-1.5,0.5-1.4c0.6,0,0.7,0.6,0.8,1.3c0.1,0.2,0.2,0.8,0.3,1.5
		c0.1,0.5,0.2,1,0.3,1.6c0,0.3,0.1,0.6,0.2,0.8c0.2,0.9,0.3,1.5,0.3,1.5s0.3,1.1,0.6,1.1c0.2,0,0.3-1.4,0.7-2.4
		c0.1-0.3,0.2-0.6,0.4-0.8c0.2-0.2,0.4-0.3,0.6-0.3c0,0,0.9-0.1,0.6,2.5c0,0-0.6,2.6-0.7,3.5c-0.1,0.9,0.2,2.5-0.9,3.6
		c0,0-0.1,0.2,0,1.1L16.3,23c-0.1-0.1-0.2-0.1-0.2-0.2c-0.2-0.2-0.4-0.5-0.6-0.8c-0.5-0.6-0.9-1.3-1.4-1.6c-0.5-0.4-1.3-3-1.7-4.2
		c-0.1-0.4-0.2-0.6-0.2-0.7C12.2,15.4,11.2,13.7,11.2,13.7z"/>
	<path class="st9" d="M12.7,26.1c-0.2-0.2-0.9-1.4-0.9-1.4c1.4,0.9,2.8,1.2,3.3,1.2c0,0,1.2,0.1,1.4,0l0.3,1.3
		C16.8,27.3,14.5,28,12.7,26.1z"/>
	<linearGradient id="SVGID_2_" gradientUnits="userSpaceOnUse" x1="18.5915" y1="27.9733" x2="14.4921" y2="28.2342">
		<stop  offset="0" style="stop-color:#000000"/>
		<stop  offset="5.712372e-02" style="stop-color:#211016;stop-opacity:0.9429"/>
		<stop  offset="0.1571" style="stop-color:#542939;stop-opacity:0.8429"/>
		<stop  offset="0.2615" style="stop-color:#823F58;stop-opacity:0.7385"/>
		<stop  offset="0.3686" style="stop-color:#A95172;stop-opacity:0.6314"/>
		<stop  offset="0.4787" style="stop-color:#C86087;stop-opacity:0.5213"/>
		<stop  offset="0.5929" style="stop-color:#E06C97;stop-opacity:0.4071"/>
		<stop  offset="0.713" style="stop-color:#F274A3;stop-opacity:0.287"/>
		<stop  offset="0.8428" style="stop-color:#FC79AA;stop-opacity:0.1572"/>
		<stop  offset="1" style="stop-color:#FF7BAC;stop-opacity:0"/>
	</linearGradient>
	<polyline class="st10" points="15.8,23.1 18.4,33 15.2,33 	"/>
	<path class="st5" d="M16.8,22.9c0,0-0.7,0.3-1,0.3l2.6,9.9h4.4L16.8,22.9z"/>
	<path class="st11" d="M7.8,7.1c0,0,0.9,0,2,1.6"/>
</g>
<g id="Layer_6" class="st0">
	<circle class="st12" cx="16.3" cy="16.2" r="13.6"/>
	<g id="XMLID_1_" class="st13">
		<g>
			<path class="st14" d="M28.4,13.1c-0.5-0.1-0.9,0.1-1.2,0.5C27,13.8,27,14.1,27,14.3c-0.1,1-0.2,2.1-0.3,3.1
				c0,0.2-0.2,0.5-0.4,0.6c-0.1,0-0.5-0.1-0.6-0.3c-1.6-2.4-3.2-4.8-4.8-7.2c-0.5-0.8-1-1.6-1.6-2.3c-0.3-0.4-0.7-0.6-1.1-0.4
				c-0.5,0.1-0.8,0.5-0.8,0.9c0,0.2,0.1,0.5,0.2,0.7c1.2,1.9,2.4,3.8,3.7,5.8c0.2,0.3,0.5,0.7,0,1c-0.5,0.3-0.7-0.1-0.9-0.5
				c-1.5-2.3-3.1-4.6-4.6-6.9c-0.4-0.7-1.2-0.7-1.6-0.4c-0.5,0.4-0.6,1-0.2,1.6c1.5,2.4,3.1,4.8,4.6,7.2c0.1,0.2,0.2,0.4,0.2,0.6
				c0,0.1-0.3,0.3-0.4,0.3c-0.2,0-0.4-0.1-0.5-0.3c-0.9-1.4-1.8-2.7-2.8-4.1c-0.5-0.7-1-1.5-1.5-2.2c-0.4-0.6-0.9-0.7-1.5-0.3
				c-0.5,0.3-0.7,1-0.3,1.6c0.9,1.4,1.8,2.7,2.7,4.1c0.6,0.9,1.1,1.7,1.7,2.6c0.2,0.3,0.5,0.6,0,0.9c-0.4,0.3-0.6-0.1-0.8-0.4
				c-1-1.4-2-2.9-3-4.3c-0.5-0.7-1.3-0.8-1.8-0.1c-0.2,0.2-0.2,0.6-0.2,0.8c0,0.3,0.2,0.6,0.4,0.9c1,1.6,2.1,3.2,3.1,4.8
				c0,0,0.1,0,0.1-0.1c1.2,1.8,2.3,3.7,3.6,5.4c1.9,2.5,5,3,7.7,1.4c0.9-0.5,1.7-1.1,2.4-1.8c1.4-1.2,2-2.7,2-4.5
				c-0.1-2.7-0.3-5.5-0.4-8.2C29.2,13.7,29,13.2,28.4,13.1z"/>
			<path class="st14" d="M27.2,13.6c0.3-0.4,0.7-0.6,1.2-0.5c0.6,0.1,0.8,0.6,0.9,1.2c0.2,2.7,0.4,5.5,0.4,8.2c0,1.8-0.6,3.3-2,4.5
				c-0.7,0.7-1.6,1.3-2.4,1.8c-2.7,1.6-5.8,1.1-7.7-1.4c-1.3-1.7-2.4-3.6-3.6-5.4c0,0-0.1,0-0.1,0.1c-1-1.6-2.1-3.2-3.1-4.8
				c-0.2-0.3-0.4-0.6-0.4-0.9c-0.1-0.3,0-0.6,0.2-0.8c0.5-0.7,1.3-0.6,1.8,0.1c1,1.4,2,2.9,3,4.3c0.2,0.3,0.4,0.6,0.8,0.4
				c0.5-0.3,0.2-0.6,0-0.9c-0.5-0.9-1.1-1.8-1.7-2.6c-0.9-1.4-1.8-2.7-2.7-4.1c-0.4-0.6-0.3-1.2,0.3-1.6c0.6-0.4,1.1-0.3,1.5,0.3
				c0.5,0.7,1,1.5,1.5,2.2c0.9,1.4,1.8,2.7,2.8,4.1c0.1,0.1,0.3,0.3,0.5,0.3c0.2,0,0.4-0.2,0.4-0.3c0-0.2-0.1-0.4-0.2-0.6
				c-1.5-2.4-3.1-4.8-4.6-7.2c-0.4-0.6-0.3-1.3,0.2-1.6c0.4-0.3,1.2-0.2,1.6,0.4c1.5,2.3,3,4.6,4.6,6.9c0.2,0.3,0.4,0.8,0.9,0.5
				c0.5-0.3,0.2-0.7,0-1c-1.2-1.9-2.5-3.8-3.7-5.8c-0.1-0.2-0.2-0.5-0.2-0.7c0-0.5,0.3-0.8,0.8-0.9c0.5-0.1,0.9,0,1.1,0.4
				c0.5,0.8,1.1,1.6,1.6,2.3c1.6,2.4,3.2,4.8,4.8,7.2c0.1,0.2,0.5,0.4,0.6,0.3c0.2-0.1,0.3-0.4,0.4-0.6c0.1-1,0.2-2.1,0.3-3.1
				C27,14.1,27,13.8,27.2,13.6z M20.6,8.1c-1.2-2-3-1.8-4.2-0.3c-0.8-0.6-1.6-1-2.6-0.5c-1,0.5-1.3,1.3-1.2,2.4
				c-0.9,0.2-1.8,0.6-2.1,1.6c-0.3,1,0.2,1.7,0.6,2.6c-0.3,0.1-0.5,0.2-0.7,0.3c-1.3,0.7-1.7,2-0.8,3.3c1.4,2.2,2.9,4.4,4.4,6.6
				c0.9,1.4,1.8,2.9,2.9,4.1c2.2,2.6,5.6,3.4,8.7,1.6c1.1-0.6,2.1-1.4,3.1-2.2c1.6-1.4,2.3-3.4,2.2-5.5c-0.1-2.7-0.3-5.5-0.5-8.2
				c-0.1-1.2-1-1.9-2.2-1.9c-1.1,0-2,0.8-2.2,1.9c-0.1,0.6-0.1,1.2-0.2,1.8c0,0-0.1,0-0.1,0.1c-0.2-0.3-0.4-0.6-0.6-0.9
				C23.5,12.6,21.9,10.4,20.6,8.1z"/>
		</g>
		<g>
			<path class="st15" d="M25.7,15.7c0.1-0.6,0.1-1.2,0.2-1.8c0.2-1.1,1.1-1.9,2.2-1.9c1.1,0,2.1,0.8,2.2,1.9
				c0.2,2.7,0.4,5.5,0.5,8.2c0.1,2.1-0.6,4-2.2,5.5c-0.9,0.8-2,1.6-3.1,2.2c-3.1,1.8-6.5,1-8.7-1.6c-1.1-1.3-2-2.7-2.9-4.1
				c-1.5-2.2-2.9-4.4-4.4-6.6c-0.9-1.3-0.5-2.6,0.8-3.3c0.2-0.1,0.4-0.2,0.7-0.3c-0.4-0.8-0.9-1.6-0.6-2.6c0.3-1,1.2-1.4,2.1-1.6
				c-0.1-1.1,0.3-1.9,1.2-2.4c1-0.5,1.8-0.2,2.6,0.5c1.1-1.5,3-1.7,4.2,0.3c1.4,2.3,2.9,4.5,4.4,6.7c0.2,0.3,0.4,0.6,0.6,0.9
				C25.6,15.7,25.7,15.7,25.7,15.7z"/>
			<path class="st15" d="M17.5,27.3c1.9,2.5,5,3,7.7,1.4c0.9-0.5,1.7-1.1,2.4-1.8c1.4-1.2,2-2.7,2-4.5c-0.1-2.7-0.3-5.5-0.4-8.2
				c0-0.5-0.3-1-0.9-1.2c-0.5-0.1-0.9,0.1-1.2,0.5C27,13.8,27,14.1,27,14.3c-0.1,1-0.2,2.1-0.3,3.1c0,0.2-0.2,0.5-0.4,0.6
				c-0.1,0-0.5-0.1-0.6-0.3c-1.6-2.4-3.2-4.8-4.8-7.2c-0.5-0.8-1-1.6-1.6-2.3c-0.3-0.4-0.7-0.6-1.1-0.4c-0.5,0.1-0.8,0.5-0.8,0.9
				c0,0.2,0.1,0.5,0.2,0.7c1.2,1.9,2.4,3.8,3.7,5.8c0.2,0.3,0.5,0.7,0,1c-0.5,0.3-0.7-0.1-0.9-0.5c-1.5-2.3-3.1-4.6-4.6-6.9
				c-0.4-0.7-1.2-0.7-1.6-0.4c-0.5,0.4-0.6,1-0.2,1.6c1.5,2.4,3.1,4.8,4.6,7.2c0.1,0.2,0.2,0.4,0.2,0.6c0,0.1-0.3,0.3-0.4,0.3
				c-0.2,0-0.4-0.1-0.5-0.3c-0.9-1.4-1.8-2.7-2.8-4.1c-0.5-0.7-1-1.5-1.5-2.2c-0.4-0.6-0.9-0.7-1.5-0.3c-0.5,0.3-0.7,1-0.3,1.6
				c0.9,1.4,1.8,2.7,2.7,4.1c0.6,0.9,1.1,1.7,1.7,2.6c0.2,0.3,0.5,0.6,0,0.9c-0.4,0.3-0.6-0.1-0.8-0.4c-1-1.4-2-2.9-3-4.3
				c-0.5-0.7-1.3-0.8-1.8-0.1c-0.2,0.2-0.2,0.6-0.2,0.8c0,0.3,0.2,0.6,0.4,0.9c1,1.6,2.1,3.2,3.1,4.8c0,0,0.1,0,0.1-0.1
				C15.1,23.7,16.2,25.6,17.5,27.3z"/>
		</g>
	</g>
	<path class="st16" d="M12.9,11.4l-5.6,1.5c-0.9,0.3-1.9-0.3-2.1-1.2l0,0C5,10.8,5.5,9.8,6.4,9.6L12,8c0.9-0.3,1.9,0.3,2.1,1.2v0
		C14.4,10.2,13.8,11.1,12.9,11.4z"/>
	<path class="st12" d="M6.6,16c0,0,3.4,4,7,0.2"/>
</g>
<g id="Layer_5" class="st0">
	<path class="st17" d="M12.8,16.4c-0.1-0.1-1.7-2-1.7-2c-1.2-1.4-1.6-0.9-1.6-0.9s-0.6,0.4,0.5,2c0,0,1.3,2.2,1.3,2.4
		c0,0.1,0.1,0.4,0.2,0.9c0.5,1.6,1.5,4.9,2.2,5.5c0.5,0.4,1.2,1.3,1.8,2c-1.1,0.4-1.8,1.1-1.8,1.1c0.9-0.1,1.8-0.1,2.6-0.1
		c0.1,0.1,0.2,0.2,0.3,0.3"/>
	<path class="st17" d="M11.1,10.9l0.3,0.9c-0.9,0-2.7,0.2-3.2,1c0,0-0.3,0.5-0.1,0.7c0.2,0.3,0.7,0.1,1-0.1c0.4-0.2,1.2-0.6,2.5-0.5
		c0,0,0.1,0,0.2,0l1.2,3.2"/>
	<path class="st17" d="M12.6,10.4"/>
	<path class="st17" d="M13.8,8.7c-3.8-1-5.2,0.7-5.2,0.7S7,11.9,5.2,14.3h0c0.1,0.9,0.2,3.5,0.2,3.5c-0.1-1.5-0.8-1.9-0.8-1.9
		c-0.3-0.2-0.5-0.2-0.7-0.2c-1.2,0.3,0.3,5.2,0.7,5.9c0.4,0.8,1.1,0.2,1.1,0.2c0.9,4.3,3.1,6.7,5.3,8c1.9,1.2,3.6,1.5,4.3,1.5
		c0,0,1.9,0.1,2.5-0.1c0,0,3.3-0.4,6.7-3.3c1-1.3,2.5-4,2.9-6c0,0,0.7,0.6,1.1-0.2c0.4-0.8,2.5-7,0-5.6c0,0-0.7,0.4-0.9,1.9
		c0,0,0.1-0.9,0.1-1.6c0,0,0-0.1,0-0.1c0-2.2-2.2-6.1-2.2-6.1"/>
	<path class="st18" d="M13.8,8.7c0.1,0.3,9.6,1.4,11.3,1.3c0,0,2.3,3.9,2.3,6.1c0,0,0,0.1,0,0.1c-0.1,0.8-0.1,1.6-0.1,1.6
		c0.1-1.5,0.9-1.9,0.9-1.9c-0.1-5.8-0.6-7.9-1.6-9.8c0,0-3.3-5.4-10-5.3c0,0-9.4-1.1-11.2,5.6c-4.2,3.3-1.6,9.1-1.6,9.1
		c0.2-0.1,0.4,0,0.7,0.2c0,0,0.7,0.4,0.8,1.9c0,0-0.2-2.6-0.2-3.5h0c1.8-2.4,3.3-4.9,3.3-4.9S10,7.7,13.8,8.7"/>
	<path class="st18" d="M8.2,13.5c-0.2-0.2,0.1-0.7,0.1-0.7c0.5-0.8,2.3-1,3.2-1l0.4,1.1c-0.1,0-0.1,0-0.2,0
		c-1.3-0.1-2.1,0.3-2.5,0.5C8.8,13.6,8.4,13.8,8.2,13.5z"/>
	<path class="st19" d="M16,27.4c-0.8,0.1-3.3,0.4-4.2,0.5c0,0,1.2-2.2,3.2-2.1C15.3,26.3,15.7,27,16,27.4z"/>
	<g class="st13">
		<path class="st20" d="M8.1,18.1c0,0,0.7,1,3.5,0.6"/>
		<path class="st20" d="M24.6,18.2c-0.1,0,0.3-0.1,0.7-0.2"/>
		<path class="st20" d="M24.6,18.2C24.5,18.2,24.5,18.2,24.6,18.2C24.5,18.2,24.5,18.2,24.6,18.2"/>
	</g>
	<path class="st17" d="M9.1,15.9c-1.3-1.8-0.5-2.2-0.5-2.2s0.4-0.6,1.7,1c0,0,1.7,2.1,1.9,2.2c0,0,0.2,0.2,0.2,0.1
		c0.1-0.1,0-0.3,0-0.3L11,13.1l-0.5-1.3l-0.4-1c0,0-0.4-1.1,0.3-1.5c0.7-0.4,1.3,0.8,1.4,0.9s2.9,5.1,2.9,5.1s0.1,0.3,0.5,0.1
		c0,0,0.1,0.1-0.1-0.7c-0.2-0.8-1.9-6.4-1.9-6.4s-0.6-1.8,0.4-2.1C14.5,6.1,14.7,7,15,7.5C15,7.6,15.3,8.2,15.6,9h0
		c0.9,2.1,2.4,5.8,2.4,5.8s0.3,0.5,0.4-0.2c0.1-0.4-0.1-3.3-0.2-5.2c0-0.9-0.1-1.6-0.1-1.6S17.9,5.7,19,5.7c0.8,0,0.9,0.8,1.2,1.8
		c0.1,0.3,0.2,1.2,0.4,2.2c0.1,0.7,0.3,1.5,0.4,2.2c0.1,0.4,0.2,0.8,0.2,1.2c0.2,1.2,0.4,2.2,0.4,2.2s0.4,1.5,0.8,1.5
		c0.2,0,0.4-2,0.9-3.5c0.2-0.4,0.3-0.8,0.6-1.1c0.3-0.3,0.6-0.5,0.9-0.4c0,0,1.3-0.1,0.9,3.6c0,0-0.9,3.8-1,5.1
		c-0.1,1.3,0.2,3.5-1.3,5.1c0,0,2.7,9.2,2.9,10.5h-8.2c-0.1-0.1-2-7-2.1-7.1c-0.3-0.3-0.6-0.7-0.9-1.1c-0.7-0.8-1.4-1.8-2-2.3
		c-0.8-0.6-1.9-4.3-2.4-6.1c-0.2-0.5-0.3-0.9-0.3-1C10.5,18.4,9.1,15.9,9.1,15.9z"/>
	<path class="st21" d="M5.7,6.9c0,0,1.1-0.1,2.6,2.1"/>
	<path class="st18" d="M21.1,12.3c0.8-0.1,1.5,0,1.5,0s0.6,0.1,1.2,0.3l0,0c-0.2,0.2-0.3,0.7-0.4,1.1c-0.2-0.1-0.5-0.2-0.7-0.2
		c-0.5-0.1-0.9,0-1.3,0C21.3,13.1,21.2,12.7,21.1,12.3z"/>
</g>
<g id="Layer_4">
</g>
<g id="Layer_2" class="st0">
</g>
</svg>
